<?xml version="1.0" encoding="utf-8"?>
<!-- Generator: Adobe Illustrator 16.0.0, SVG Export Plug-In . SVG Version: 6.00 Build 0)  -->
<!DOCTYPE svg PUBLIC "-//W3C//DTD SVG 1.1//EN" "http://www.w3.org/Graphics/SVG/1.1/DTD/svg11.dtd">
<svg version="1.1" id="Layer_1" xmlns="http://www.w3.org/2000/svg" xmlns:xlink="http://www.w3.org/1999/xlink" x="0px" y="0px"
	 width="800px" height="381.213px" viewBox="0 0 800 381.213" enable-background="new 0 0 800 381.213" xml:space="preserve">
<polygon fill-rule="evenodd" clip-rule="evenodd" fill="#ED1C24" points="352.849,5.408 339.13,6.038 327.129,6.659 316.843,7.28 
	307.123,7.892 298.555,8.513 289.979,9.134 282.547,9.754 275.116,10.376 268.257,10.997 261.97,11.618 255.683,12.239 
	249.396,12.86 243.681,13.48 237.966,14.093 232.815,14.713 227.673,15.333 222.532,15.955 217.961,16.567 213.392,17.196 
	208.813,17.818 204.243,18.438 200.236,19.06 196.247,19.671 191.677,20.292 188.243,20.922 184.238,21.543 180.239,22.165 
	176.814,22.776 173.381,23.396 169.955,24.018 166.521,24.638 163.096,25.26 159.661,25.881 156.809,26.501 153.375,27.123 
	150.521,27.743 147.66,28.356 144.807,28.977 141.946,29.597 139.083,30.218 136.231,30.839 133.369,31.452 130.516,32.072 
	128.227,32.702 125.938,33.323 123.085,33.943 120.795,34.555 118.515,35.176 116.225,35.806 113.936,36.428 111.655,37.048 
	109.366,37.66 107.077,38.28 104.796,38.902 102.507,39.523 100.79,40.134 98.509,40.756 96.792,41.385 94.503,42.007 
	92.786,42.627 90.504,43.24 88.788,43.86 87.071,44.48 85.363,45.102 83.646,45.723 81.929,46.335 80.212,46.956 78.503,47.585 
	76.787,48.207 75.07,48.827 73.353,49.438 71.644,50.061 70.5,50.681 68.783,51.312 67.074,51.914 65.93,52.544 64.213,53.165 
	63.068,53.785 61.351,54.407 60.206,55.018 59.07,55.64 57.926,56.26 56.781,56.881 55.636,57.511 54.492,58.124 53.356,58.744 
	52.783,59.364 51.639,59.986 50.494,60.606 49.922,61.219 48.777,61.839 47.641,62.469 47.061,63.09 45.916,63.702 45.352,64.323 
	44.207,64.944 43.635,65.565 42.49,66.195 41.918,66.797 41.345,67.428 40.209,68.049 39.637,68.669 39.065,69.291 38.492,69.901 
	37.92,70.524 37.355,71.144 36.203,71.764 35.631,72.386 35.059,73.007 34.495,74.25 33.922,74.87 33.342,75.482 32.769,76.103 
	32.205,76.723 31.633,77.353 31.062,78.586 30.488,79.207 29.916,79.828 29.352,81.069 28.78,81.681 28.208,82.312 27.627,83.553 
	27.055,84.174 26.491,85.408 25.919,86.028 25.347,86.648 24.774,87.891 24.202,88.503 23.638,89.753 23.057,90.366 22.485,91.606 
	21.913,92.858 21.348,94.09 20.776,95.333 20.204,95.953 19.624,97.186 19.059,98.438 18.487,99.67 17.916,101.533 17.342,102.767 
	16.77,104.017 16.199,105.25 15.634,107.112 15.063,108.354 14.489,109.596 13.917,111.449 13.336,113.312 12.773,115.175 
	12.2,116.417 11.628,118.271 11.055,120.753 10.491,122.617 9.918,124.48 9.347,126.955 8.767,128.816 8.194,131.301 7.63,134.397 
	7.058,136.88 6.485,139.984 5.914,143.079 5.341,146.175 4.777,150.521 4.196,154.859 3.625,159.826 3.051,165.405 2.479,173.469 
	2.479,212.542 3.051,220.586 3.625,226.165 4.196,231.132 4.777,235.47 5.341,239.824 5.914,242.92 6.485,246.017 7.058,249.113 
	7.63,251.595 8.194,254.709 8.767,257.175 9.347,259.046 9.918,261.53 10.491,263.384 11.055,265.236 11.628,267.721 12.2,269.575 
	12.773,270.816 13.336,272.688 13.917,274.541 14.489,276.396 15.063,277.638 15.634,278.881 16.199,280.751 16.77,281.993 
	17.342,283.234 17.916,284.458 18.487,286.33 19.059,287.571 19.624,288.815 20.204,290.038 20.776,290.668 21.348,291.911 
	21.913,293.151 22.485,294.393 23.057,295.636 23.638,296.247 24.202,297.488 24.774,298.1 25.347,299.342 25.919,299.973 
	26.491,300.585 27.055,301.826 27.627,302.456 28.208,303.698 28.78,304.309 29.352,304.922 29.916,306.163 30.488,306.794 
	31.062,307.405 31.633,308.647 32.205,309.277 32.769,309.89 33.342,310.519 33.922,311.13 34.495,311.762 35.059,312.984 
	35.631,313.614 36.203,314.226 37.355,314.856 37.92,315.469 38.492,316.099 39.065,316.71 39.637,317.34 40.209,317.952 
	41.345,318.583 41.918,319.192 42.49,319.805 43.635,320.436 44.207,321.048 45.352,321.678 45.916,322.289 47.061,322.919 
	47.641,323.531 48.777,324.16 49.922,324.773 50.494,325.385 51.639,326.014 52.783,326.645 53.356,327.257 54.492,327.869 
	55.636,328.498 56.781,329.109 57.926,329.74 59.07,330.354 60.206,330.982 61.351,331.594 63.068,332.225 64.213,332.835 
	65.93,333.466 67.074,334.078 68.783,334.689 70.5,335.319 71.644,335.931 73.353,336.562 75.07,337.175 76.787,337.803 
	78.503,338.415 80.212,339.045 81.929,339.657 83.646,340.271 85.363,340.898 87.071,341.511 88.788,342.141 90.504,342.752 
	92.786,343.383 94.503,343.994 96.792,344.624 98.509,345.236 100.79,345.866 102.507,346.477 104.796,347.09 107.077,347.72 
	109.366,348.351 111.655,348.961 113.936,349.572 116.225,350.204 118.515,350.815 120.795,351.445 123.085,352.058 
	125.938,352.686 128.227,353.298 130.516,353.929 133.369,354.541 136.231,355.153 139.083,355.781 141.946,356.394 
	144.807,357.025 147.66,357.637 150.521,358.267 153.375,358.878 156.809,359.508 159.661,360.118 163.096,360.731 166.521,361.362 
	169.955,361.974 173.381,362.603 176.814,363.214 180.239,363.828 184.238,364.458 188.243,365.088 191.677,365.698 196.247,366.33 
	200.236,366.94 204.243,367.57 208.813,368.184 213.392,368.813 217.961,369.424 222.532,370.036 227.673,370.666 232.815,371.279 
	237.966,371.909 243.681,372.52 249.396,373.132 255.683,373.762 261.97,374.392 268.257,375.005 275.116,375.615 282.547,376.246 
	289.979,376.857 298.555,377.487 307.123,378.098 316.843,378.713 327.129,379.342 339.13,379.973 352.849,380.582 370,381.213 
	434.006,381.213 451.159,380.582 464.877,379.973 476.87,379.342 487.172,378.713 496.894,378.098 505.452,377.487 514.029,376.857 
	521.459,376.246 528.891,375.615 535.759,375.005 542.028,374.392 548.315,373.762 554.619,373.132 560.326,372.52 566.032,371.909 
	571.191,371.279 576.334,370.666 581.476,370.036 586.037,369.424 590.615,368.813 595.194,368.184 599.757,367.57 603.771,366.94 
	607.769,366.33 612.331,365.698 615.764,365.088 619.763,364.458 623.775,363.828 627.194,363.214 630.628,362.603 634.061,361.974 
	637.495,361.362 640.912,360.731 644.347,360.118 647.2,359.508 650.633,358.878 653.485,358.267 656.355,357.637 659.209,357.025 
	662.062,356.394 664.932,355.781 667.784,355.153 670.639,354.541 673.491,353.929 675.78,353.298 678.07,352.686 680.923,352.058 
	683.213,351.445 685.5,350.815 687.773,350.204 690.079,349.572 692.353,348.961 694.641,348.351 696.931,347.72 699.22,347.09 
	701.492,346.477 703.219,345.866 705.506,345.236 707.216,344.624 709.504,343.994 711.214,343.383 713.502,342.752 715.21,342.141 
	716.936,341.511 718.645,340.898 720.354,340.271 722.078,339.657 723.788,339.045 725.512,338.415 727.221,337.803 
	728.929,337.175 730.654,336.562 732.363,335.931 733.507,335.319 735.232,334.689 736.941,334.078 738.086,333.466 
	739.795,332.835 740.939,332.225 742.647,331.594 743.793,330.982 744.938,330.354 746.081,329.74 747.226,329.109 748.372,328.498 
	749.516,327.869 750.66,327.257 751.223,326.645 752.368,326.014 753.514,325.385 754.078,324.773 755.237,324.16 756.366,323.531 
	756.947,322.919 758.092,322.289 758.655,321.678 759.8,321.048 760.381,320.436 761.508,319.805 762.09,319.192 762.653,318.583 
	763.798,317.952 764.377,317.34 764.941,316.71 765.523,316.099 766.088,315.469 766.651,314.856 767.795,314.226 768.375,313.614 
	768.958,312.984 769.521,311.762 770.086,311.13 770.666,310.519 771.229,309.89 771.795,309.277 772.373,308.647 772.938,307.405 
	773.52,306.794 774.1,306.163 774.664,304.922 775.227,304.309 775.808,303.698 776.372,302.456 776.95,301.826 777.516,300.585 
	778.098,299.973 778.662,299.342 779.241,298.1 779.805,297.488 780.37,296.247 780.949,295.636 781.514,294.393 782.096,293.151 
	782.659,291.911 783.239,290.668 783.804,290.038 784.384,288.815 784.947,287.571 785.513,286.33 786.091,284.458 786.655,283.234 
	787.238,281.993 787.802,280.751 788.382,278.881 788.945,277.638 789.524,276.396 790.09,274.541 790.672,272.688 791.236,270.816 
	791.799,269.575 792.379,267.721 792.944,265.236 793.522,263.384 794.088,261.53 794.67,259.046 795.232,257.175 795.813,254.709 
	796.377,251.595 796.957,249.113 797.521,246.017 798.104,242.92 798.665,239.824 799.229,235.47 799.812,231.132 800.376,226.165 
	800.955,220.586 801.52,212.542 801.52,173.469 800.955,165.405 800.376,159.826 799.812,154.859 799.229,150.521 798.665,146.175 
	798.104,143.079 797.521,139.984 796.957,136.88 796.377,134.397 795.813,131.301 795.232,128.816 794.67,126.955 794.088,124.48 
	793.522,122.617 792.944,120.753 792.379,118.271 791.799,116.417 791.236,115.175 790.672,113.312 790.09,111.449 789.524,109.596 
	788.945,108.354 788.382,107.112 787.802,105.25 787.238,104.017 786.655,102.767 786.091,101.533 785.513,99.67 784.947,98.438 
	784.384,97.186 783.804,95.953 783.239,95.333 782.659,94.09 782.096,92.858 781.514,91.606 780.949,90.366 780.37,89.753 
	779.805,88.503 779.241,87.891 778.662,86.648 778.098,86.028 777.516,85.408 776.95,84.174 776.372,83.553 775.808,82.312 
	775.227,81.681 774.664,81.069 774.1,79.828 773.52,79.207 772.938,78.586 772.373,77.353 771.795,76.723 771.229,76.103 
	770.666,75.482 770.086,74.87 769.521,74.25 768.958,73.007 768.375,72.386 767.795,71.764 766.651,71.144 766.088,70.524 
	765.523,69.901 764.941,69.291 764.377,68.669 763.798,68.049 762.653,67.428 762.09,66.797 761.508,66.195 760.381,65.565 
	759.8,64.944 758.655,64.323 758.092,63.702 756.947,63.09 756.366,62.469 755.237,61.839 754.078,61.219 753.514,60.606 
	752.368,59.986 751.223,59.364 750.66,58.744 749.516,58.124 748.372,57.511 747.226,56.881 746.081,56.26 744.938,55.64 
	743.793,55.018 742.647,54.407 740.939,53.785 739.795,53.165 738.086,52.544 736.941,51.914 735.232,51.312 733.507,50.681 
	732.363,50.061 730.654,49.438 728.929,48.827 727.221,48.207 725.512,47.585 723.788,46.956 722.078,46.335 720.354,45.723 
	718.645,45.102 716.936,44.48 715.21,43.86 713.502,43.24 711.214,42.627 709.504,42.007 707.216,41.385 705.506,40.756 
	703.219,40.134 701.492,39.523 699.22,38.902 696.931,38.28 694.641,37.66 692.353,37.048 690.079,36.428 687.773,35.806 
	685.5,35.176 683.213,34.555 680.923,33.943 678.07,33.323 675.78,32.702 673.491,32.072 670.639,31.452 667.784,30.839 
	664.932,30.218 662.062,29.597 659.209,28.977 656.355,28.356 653.485,27.743 650.633,27.123 647.2,26.501 644.347,25.881 
	640.912,25.26 637.495,24.638 634.061,24.018 630.628,23.396 627.194,22.776 623.775,22.165 619.763,21.543 615.764,20.922 
	612.331,20.292 607.769,19.671 603.771,19.06 599.757,18.438 595.194,17.818 590.615,17.196 586.037,16.567 581.476,15.955 
	576.334,15.333 571.191,14.713 566.032,14.093 560.326,13.48 554.619,12.86 548.315,12.239 542.028,11.618 535.759,10.997 
	528.891,10.376 521.459,9.754 514.029,9.134 505.452,8.513 496.894,7.892 487.172,7.28 476.87,6.659 464.877,6.038 451.159,5.408 
	434.006,4.788 370,4.788 "/>
<path fill-rule="evenodd" clip-rule="evenodd" fill="#FFFBF9" d="M23.638,182.764v20.472c0,16.341,5.566,46.504,9.995,58.6
	c6.478,17.692,12.782,30.901,25.007,42.312c21.688,20.265,62.256,26.943,94.959,35.887c17.327,4.716,37.025,5.761,55.455,9.286
	c17.551,3.348,39.066,5.598,57.488,7.092c38.999,3.151,80.245,6.802,121.749,6.802h27.437c41.421,0,82.36-3.614,121.742-6.802
	c19.374-1.583,38.732-4.589,57.676-6.894c7.714-0.935,19.839-2.86,27.819-4.553c9.538-2.016,18.23-2.574,27.338-5.057
	c33.309-9.107,72.872-15.028,95.067-35.762c12.225-11.41,18.528-24.619,25.015-42.312c4.43-12.096,9.986-42.259,9.986-58.6v-20.472
	c0-16.288-5.575-46.568-9.986-58.6c-6.503-17.71-12.758-30.875-25.015-42.321c-12.061-11.285-27.04-15.938-43.811-21.93
	c-16.672-5.948-33.242-8.873-51.257-13.822c-17.898-4.913-36.313-5.786-55.354-9.412c-17.303-3.293-39.35-5.633-57.479-7.083
	c-39.432-3.158-80.272-6.82-121.742-6.82H388.29c-41.305,0-82.618,3.645-121.749,6.82c-19.658,1.594-38.56,4.563-57.669,6.885
	c-7.722,0.935-19.849,2.86-27.82,4.544c-9.396,1.988-18.461,2.483-27.453,4.94c-32.703,8.945-73.271,15.622-94.959,35.878
	c-12.225,11.418-18.529,24.629-25.007,42.321C29.204,136.25,23.638,166.414,23.638,182.764"/>
<path fill-rule="evenodd" clip-rule="evenodd" fill="#ED1C24" d="M35.059,185.247v15.506c0,39.108,13.626,80.484,33.882,97.185
	c10.209,8.422,28.225,17.277,42.755,20.59c7.581,1.729,15.975,5.146,24.285,7.145c7.863,1.871,18.629,4.985,26.019,5.866
	c7.142,0.847,19.632,3.15,26.243,5.022c6.536,1.835,19.88,2.753,27.412,3.726c4.322,0.576,9.497,1.674,13.751,1.854
	c1.826,0.071,11.521,0.936,14.167,1.351c8.402,1.385,19.068,2.015,27.661,3.473c4.711,0.81,9.44,0.179,14.398,1.135
	c4.281,0.811,9.996,0.773,14.655,0.846c9.448,0.144,18.497,1.925,29.138,1.871c19.317-0.107,39.231,2.482,60.009,2.482h25.146
	c20.637,0,40.227-2.482,59.42-2.501c18.712-0.018,40.508-2.069,57.794-4.282c5.06-0.631,9.438-0.056,14.465-1.027
	c4.411-0.845,9.521-1.403,14.099-1.458c7.481-0.107,20.107-2.608,27.472-3.688c4.611-0.666,9.271-0.773,13.899-1.656
	c3.749-0.72,10.718-1.188,13.587-1.998c7.101-1.962,19.208-4.266,26.69-5.147c7.631-0.899,17.484-4.049,25.545-5.758
	c8.346-1.782,16.805-5.381,24.269-7.181c15.328-3.672,32.166-11.608,42.932-20.391c20.504-16.739,34.206-58.025,34.206-97.457
	v-15.506c0-39.098-13.637-80.484-33.892-97.185c-10.202-8.424-28.217-17.287-42.748-20.59c-7.598-1.727-15.974-5.156-24.283-7.135
	c-7.865-1.881-18.646-5.004-26.028-5.876c-7.134-0.846-19.641-3.149-26.243-5.022c-6.535-1.845-19.888-2.752-27.419-3.734
	c-18.546-2.421-36.048-4.554-56.035-6.182c-37.624-3.051-77.252-6.821-117.729-6.821h-25.146c-20.644,0-40.236,2.474-59.428,2.492
	c-20.271,0.02-38.725,3.384-58.341,3.682c-8.981,0.144-18.611,2.979-28.009,3.104c-8.583,0.117-19.367,2.493-27.47,3.671
	c-4.628,0.685-9.281,0.774-13.901,1.664c-3.758,0.73-10.725,1.188-13.594,1.991c-7.1,1.97-19.201,4.264-26.691,5.156
	c-7.763,0.917-17.318,4.067-25.562,5.75c-8.261,1.691-16.82,5.398-24.243,7.181C96.858,71.072,80.029,79,69.263,87.783
	C48.761,104.52,35.059,145.815,35.059,185.247"/>
<path fill-rule="evenodd" clip-rule="evenodd" fill="#FFFBF9" d="M224.248,192.689v48.989c0,23.271,13.081,39.684,34.296,39.684
	h48.579c8.46,0,16.729-5.829,21.316-10.364c3.665-3.619,10.126-16.109,10.126-23.129v-55.18c0-18.186-14.821-36.589-30.871-36.589
	h-49.722C239.128,156.101,224.248,172.434,224.248,192.689"/>
<path fill-rule="evenodd" clip-rule="evenodd" fill="#FFFBF9" d="M481.449,281.993h8.576v-52.715
	c15.062,0,22.659,12.598,27.819,23.775c4.528,9.845,11.593,28.309,24.184,28.309h10.866c7.464,0,10.584-3.113,15.428-4.337
	c-0.398-1.674-3.832-5.507-5.143-8.675c-1.51-3.67-2.256-6.874-3.716-10.853c-3.118-8.494-4.661-12.364-8.959-19.418
	c-2.47-4.051-9.984-11.483-13.602-14.398c-2.687-2.142-5.225-3.959-8.129-6.065c-2.403-1.745-7.232-2.934-7.315-6.947
	c9.87,0,20.371-13.48,24.469-20.58c2.721-4.716,3.963-10.187,7.315-15.63c1.726-2.834,8.312-12.401,8.791-14.515l-27.437-2.601
	h-1.145c-8.393,0-18.347,13.128-21.515,20.049c-4.048,8.854-10.284,20.373-19.624,22.739V117.65
	c0-10.088-20.071-16.117-30.872-16.117h-5.706c-3.085,0-1.725,20.571-1.725,24.799c0,8.892,0,17.782,0,26.672
	c0,16.964-0.563,35.375-0.563,53.328c0,18.303-0.582,34.519-0.582,52.714c0,11.952-0.414,14.309,7.614,18.395
	C465.26,279.887,474.697,281.993,481.449,281.993"/>
<path fill-rule="evenodd" clip-rule="evenodd" fill="#FFFBF9" d="M648.344,252.226c-1.278-0.324-1.311-0.631-2.854-0.631h-1.144
	c-6.72,0-10.85,3.727-17.718,3.727h-0.58c-4.677,0-9.007-3.474-11.296-6.336c-2.488-3.131-1.278-12.562-1.278-17.854
	c0-12.814,0-25.627,0-38.442c0-15.874,2.14-23.811-8.559-29.155c-7.149-3.59-19.193-6.191-29.477-6.182l-1.959,84.938v5.578
	c0,18.43,25.049,31.641,44.01,31.641l2.884,0.449l37.126-2.934h2.853c11.778,0,16.158,3.636,23.872,4.337l0.695-31.622v-64.493
	c0-10.59-0.496-18.222-6.17-23.063c-4.778-4.085-13.403-6.704-21.83-6.704h-8.576V252.226z"/>
<path fill-rule="evenodd" clip-rule="evenodd" fill="#FFFBF9" d="M119.086,116.417c0,29.264,15.353,27.284,41.147,27.284h5.143
	l0.19,8.683l-1.328,103.549v17.367c0,8.891,21.125,11.788,30.291,11.788l5.499-0.018l3.069-141.37h33.15
	c11.571,0,17.145-19.942,17.145-33.484c-11.163,2.816-21.987,4.958-36.005,4.958h-50.868c-18.57,0-32.637-2.457-47.434-6.2V116.417z
	"/>
<path fill-rule="evenodd" clip-rule="evenodd" fill="#FFFBF9" d="M353.421,268.964c0,7.287,11.885,12.398,19.433,12.398h15.436
	c1.974,0,2.206-0.467,3.998-0.611v-93.02c0-2.582,5.457-2.484,7.995-2.484h6.869c12.622,0,20.668,8.819,25.147,17.989
	c4.959-3.618,12.572-11.761,12.572-20.472v-1.232c0-11.888-11.147-24.189-22.293-24.189l-6.288-0.072l-36.494,5.11l-0.083-0.7
	h-8.004c-8.659,0-13.254-4.744-18.289-6.201V268.964z"/>
<path fill-rule="evenodd" clip-rule="evenodd" fill="#E3232B" d="M259.116,201.986v33.483c0,10.924,10.252,22.947,19.999,22.947
	h4.005c9.572,0,20.005-11.177,20.005-21.705v-35.958c0-12.212-10.608-21.706-22.295-21.706h-2.28
	C269.161,179.048,259.116,191.304,259.116,201.986"/>
</svg>
